# xmcd CD database file
#
# Track frame offsets:
#	150
#	1299
#	122769
#	201656
#	260374
#	325110
#	326239
#
# Disc length: 4456 seconds
#
# Revision: 0
# Processed by: cddbd v1.5.1PL2 Copyright (c) Steve Scherf et al.
# Submitted via: CDex 1.51
#
DISCID=63116607
DTITLE=Tepperwein - SelbstbewusstSein und Lebensvision CD8
DYEAR=2004
DGENRE=New Age
TTITLE0=Jingle
TTITLE1=Scheintugenden
TTITLE2=Den inneren Meister wecken
TTITLE3=Leben nach den Spielregeln des Lebens
TTITLE4=Das Geniessen lernen
TTITLE5=Jingle
TTITLE6=Schlussworte
EXTD=YEAR: 2004
EXTT0=
EXTT1=
EXTT2=
EXTT3=
EXTT4=
EXTT5=
EXTT6=
PLAYORDER=
